<svg width="88" height="37" viewBox="0 0 88 37" fill="none" xmlns="http://www.w3.org/2000/svg">
<g clip-path="url(#clip0_1442_16423)">
<path d="M32.3518 10.3951C31.6337 10.3951 31.0553 10.9736 31.0553 11.6916V18.164C31.0553 21.0162 28.7316 23.3398 25.8794 23.3398C23.0272 23.3398 20.7035 21.0162 20.7035 18.164V11.6916C20.7035 10.9736 20.1251 10.3951 19.4071 10.3951C18.689 10.3951 18.1106 10.9736 18.1106 11.6916V18.164C18.1106 22.4423 21.5911 25.9328 25.8794 25.9328C30.1677 25.9328 33.6482 22.4523 33.6482 18.164V11.6916C33.6482 10.9736 33.0698 10.3951 32.3518 10.3951Z" fill="white"/>
<path d="M11 16.8675H4.52765C3.46056 16.8675 2.58296 15.9999 2.58296 14.9228C2.58296 13.8457 3.45059 12.9781 4.52765 12.9781H13.583C14.301 12.9781 14.8794 12.3997 14.8794 11.6816C14.8794 10.9636 14.301 10.3852 13.583 10.3852H4.52765C2.03445 10.3852 0 12.4196 0 14.9128C0 17.406 2.03445 19.4405 4.52765 19.4405H11C12.0671 19.4405 12.9447 20.3081 12.9447 21.3852C12.9447 22.4622 12.0771 23.3299 11 23.3299H1.9447C1.22665 23.3299 0.648232 23.9083 0.648232 24.6263C0.648232 25.3444 1.22665 25.9228 1.9447 25.9228H11C13.4932 25.9228 15.5277 23.8883 15.5277 21.3951C15.5277 18.9019 13.4932 16.8675 11 16.8675Z" fill="white"/>
<path d="M45.2965 23.3398C42.4442 23.3398 40.1206 21.0162 40.1206 18.164V2.63631C40.1206 1.91827 39.5422 1.33984 38.8241 1.33984C38.1061 1.33984 37.5277 1.91827 37.5277 2.63631V18.164C37.5277 22.4423 41.0082 25.9328 45.2965 25.9328C46.0145 25.9328 46.5929 25.3544 46.5929 24.6363C46.5929 23.9183 46.0145 23.3398 45.2965 23.3398Z" fill="white"/>
<path d="M55.6482 23.3398C52.796 23.3398 50.4724 21.0162 50.4724 18.164V2.63631C50.4724 1.91827 49.8939 1.33984 49.1759 1.33984C48.4578 1.33984 47.8794 1.91827 47.8794 2.63631V18.164C47.8794 22.4423 51.3599 25.9328 55.6482 25.9328C56.3663 25.9328 56.9447 25.3544 56.9447 24.6363C56.9447 23.9183 56.3663 23.3398 55.6482 23.3398Z" fill="white"/>
<path d="M66.01 23.3398C63.1578 23.3398 60.8341 21.0162 60.8341 18.164V11.6916C60.8341 10.9736 60.2557 10.3951 59.5376 10.3951C58.8196 10.3951 58.2412 10.9736 58.2412 11.6916V18.164C58.2412 22.4423 61.7217 25.9328 66.01 25.9328H68.6029V34.9881C68.6029 35.7061 69.1813 36.2845 69.8994 36.2845C70.6174 36.2845 71.1958 35.7061 71.1958 34.9881V24.6363C71.1958 23.9183 70.6174 23.3398 69.8994 23.3398H66.01Z" fill="white"/>
<g clip-path="url(#clip1_1442_16423)">
<path d="M81.9095 1.44886L78.0387 2.5589C75.901 3.17196 74.6649 5.40213 75.2779 7.54012C75.8909 9.67811 78.1208 10.9143 80.2586 10.3013L84.1293 9.19121C86.2671 8.57816 87.5032 6.34799 86.8902 4.21C86.2772 2.07201 84.0472 0.835806 81.9095 1.44886Z" fill="#CC0066"/>
<path d="M79.7415 6.3766L75.8708 7.48664C73.733 8.0997 72.4969 10.3299 73.1099 12.4679C73.7229 14.6058 75.9528 15.842 78.0906 15.229L81.9614 14.1189C84.0991 13.5059 85.3352 11.2757 84.7222 9.13773C84.1092 6.99974 81.8793 5.76354 79.7415 6.3766Z" fill="#626262"/>
<path fill-rule="evenodd" clip-rule="evenodd" d="M79.7381 6.38451L75.8652 7.49764C75.6752 7.55194 75.4942 7.62434 75.3223 7.69674C75.9919 9.742 78.1636 10.9004 80.2539 10.3031L84.1268 9.18996C84.3168 9.13567 84.4978 9.06327 84.6698 8.99087C84.0001 6.9456 81.8284 5.78722 79.7381 6.38451Z" fill="#FF0080"/>
</g>
</g>
<defs>
<clipPath id="clip0_1442_16423">
<rect width="88" height="36" fill="white" transform="translate(0 0.339844)"/>
</clipPath>
<clipPath id="clip1_1442_16423">
<rect width="16.0001" height="16.0006" fill="white" transform="translate(72 0.338867)"/>
</clipPath>
</defs>
<script xmlns=""/></svg>